ply
format ascii 1.0
comment PCL generated
element vertex 201
property float x
property float y
property float z
property float intensity
element camera 1
property float view_px
property float view_py
property float view_pz
property float x_axisx
property float x_axisy
property float x_axisz
property float y_axisx
property float y_axisy
property float y_axisz
property float z_axisx
property float z_axisy
property float z_axisz
property float focal
property float scalex
property float scaley
property float centerx
property float centery
property int viewportx
property int viewporty
property float k1
property float k2
end_header
-86.047699 -59.314583 -4.8805575 6
-68.073044 -75.369286 -5.4069433 5
-68.269829 -75.210434 -5.3707337 100
-68.46833 -75.05442 -5.33498 100
-58.075012 -82.415894 -5.0546861 6
-69.185905 -29.755451 -6.1974392 35
-61.022293 -31.33399 -5.761971 28
-56.751934 -26.356081 -5.9560518 19
-54.020374 -23.32177 -6.3577271 19
-54.130501 -23.089382 -6.3338184 19
-51.685574 -21.727657 -6.8719859 17
-51.849228 -21.4093 -6.8391743 17
-51.953426 -21.338037 -6.8411851 17
-51.846725 -20.568686 -6.6980009 16
-53.965508 -21.348021 -6.050765 18
-41.451946 -54.395439 -6.0687976 24
-51.336071 -19.953856 -6.5259609 15
-51.580635 -20.26507 -6.6110272 16
-53.04488 -22.034719 -6.0436354 17
-53.059105 -21.895704 -6.023891 17
-53.46896 -21.452003 -6.0056443 17
-53.843117 -21.423687 -6.046874 18
-53.984272 -21.221323 -6.0346308 18
-47.729645 -16.949928 -7.341517 11
-47.788883 -16.819132 -7.3282685 11
-47.828556 -16.613005 -7.2979021 11
-48.030758 -16.499716 -7.3153138 11
-53.092453 -21.639719 -5.98875 17
-53.210751 -21.498957 -5.9816189 17
-47.242668 -17.038504 -7.2690983 10
-50.318489 -11.250013 -7.0257483 21
-50.730572 -19.151764 -6.3110132 14
-50.941723 -19.433857 -6.3862143 15
-50.989105 -19.068445 -6.3348618 14
-50.940773 -18.911089 -6.3031726 14
-51.020439 -19.215481 -6.3626003 15
-51.04174 -18.850563 -6.3083577 14
-39.781555 -52.162796 -5.828474 21
-39.928921 -52.101051 -5.801188 21
-40.323723 -52.162472 -5.7709589 21
-45.930573 -14.648793 -7.4368324 16
-46.037605 -14.55776 -7.4426289 16
-46.162914 -14.274023 -7.4173393 16
-46.327652 -14.042405 -7.4114313 16
-46.476871 -13.974401 -7.4320478 16
-46.597591 -13.835841 -7.4343562 16
-47.071903 -16.757616 -7.1848888 10
-47.622055 -15.457399 -7.0542488 10
-47.578644 -26.033047 -6.2274175 16
-47.963963 -11.828384 -7.4323044 16
-47.652485 -25.941021 -6.2143588 16
-48.01086 -11.74083 -7.4312267 16
-48.399822 -10.034052 -7.3090339 16
-48.485725 -10.20961 -7.3508153 16
-49.894917 -11.389742 -6.9465637 10
-50.057587 -11.036852 -6.9436898 10
-50.040142 -10.875254 -6.922308 10
-50.378208 -10.134813 -6.9239616 10
-58.293854 -27.851671 -3.8670647 19
-58.594078 -48.066475 -2.3176866 34
-58.782455 -47.701607 -2.2635775 34
-69.912178 -26.4632 -1.6404016 22
-38.758842 -57.591286 -5.4296622 33
-38.97554 -57.412754 -5.3721175 33
-39.345299 -51.521786 -5.7552233 20
-40.768837 -46.287819 -5.9633236 33
-40.955101 -46.149319 -5.920043 66
-43.806282 -14.297266 -7.7346358 8
-45.515831 -14.819237 -7.3817596 15
-45.456497 -24.637096 -6.7510934 14
-45.540234 -14.930377 -7.4083328 16
-45.550812 -14.732859 -7.3725128 15
-46.085262 -14.376643 -7.4193764 16
-46.193932 -14.178555 -7.4067535 16
-46.178616 -14.062346 -7.3825169 16
-53.58223 -22.198729 -5.056385 15
-53.680252 -21.955103 -5.0325003 15
-39.63752 -37.689636 -6.6014647 21
-42.299187 -15.709555 -7.7320857 7
-44.227097 -12.879211 -7.5444221 7
-44.325745 -12.83758 -7.560071 7
-44.388123 -12.730897 -7.5548115 7
-44.478642 -12.543484 -7.5415936 7
-44.484974 -21.235329 -6.8187442 21
-44.573978 -12.36095 -7.5311627 7
-44.612766 -12.186621 -7.5090585 7
-44.715 -11.998724 -7.5007787 7
-44.62986 -21.103636 -6.806778 21
-44.790379 -11.953656 -7.5115504 7
-44.835453 -20.951897 -6.7983737 21
-45.027889 -20.857222 -6.8017106 21
-45.817936 -10.315218 -7.5122075 7
-46.167912 -9.5445185 -7.4990077 7
-46.990173 -14.808814 -6.8212252 9
-53.257374 -22.400574 -5.0529766 15
-53.242683 -22.247797 -5.0300179 15
-53.382534 -22.194025 -5.0361309 15
-53.503937 -21.993944 -5.0203147 15
-53.719906 -21.84931 -5.0220146 15
-53.676785 -21.591242 -4.9827204 15
-53.877056 -21.435501 -4.982255 15
-54.055698 -21.334639 -4.9872541 15
-35.346985 -46.654945 -6.5630178 33
-42.517677 -12.662357 -7.8743606 4
-43.837795 -12.853248 -7.4466114 7
-44.034199 -12.96096 -7.5143313 7
-44.023289 -21.688274 -6.8680706 21
-44.120602 -21.571827 -6.8523469 21
-44.22987 -21.47422 -6.8427153 21
-44.324318 -21.363218 -6.8284807 21
-44.393093 -21.289083 -6.8198256 21
-44.635555 -12.058507 -7.4917188 7
-46.786591 -14.460357 -6.7229953 9
-46.879375 -14.625422 -6.7687435 9
-42.589458 -11.307321 -7.6120834 4
-42.841602 -11.268746 -7.671854 4
-42.930573 -11.181275 -7.6788187 4
-42.967388 -11.115826 -7.6762042 4
-43.004333 -10.913226 -7.647984 4
-43.11866 -10.712953 -7.6419888 4
-43.127857 -10.585562 -7.6212854 4
-43.295864 -10.540889 -7.659502 4
-43.310524 -10.328875 -7.6259871 4
-43.336433 -10.125375 -7.5978041 4
-43.348167 -10.005995 -7.580646 4
-43.487179 -9.9391346 -7.6084037 4
-43.571369 -9.8447828 -7.6163878 4
-43.656349 -9.719223 -7.6198573 4
-43.803162 -9.529254 -7.6310534 4
-44.112789 -8.8959608 -7.6239352 4
-44.205887 -8.6853456 -7.6208625 4
-44.565273 -10.632121 -7.2337627 6
-46.572651 -14.123215 -6.6251369 8
-46.649601 -14.270476 -6.6645718 9
-46.642319 -14.055087 -6.6277838 8
-46.722816 -13.891124 -6.6172647 8
-46.704132 -13.728208 -6.5875049 8
-46.994259 -13.416468 -6.5973778 8
-56.385883 -14.306289 -4.5358634 29
-58.20929 -23.741732 -3.3999515 18
-58.34024 -23.650787 -3.3992195 18
-37.075741 -49.304546 -5.5883074 75
-37.123299 -54.794582 -5.1644235 30
-37.422733 -49.111183 -5.5123987 18
-37.628551 -48.995083 -5.4674749 37
-39.382343 -15.333642 -7.817347 3.5
-44.044994 -11.461831 -7.2400045 6
-43.901524 -11.285392 -7.1735663 6
-43.934093 -11.12474 -7.1542082 6
-44.037891 -10.999906 -7.1592283 6
-44.117401 -10.898623 -7.1624928 6
-44.223846 -10.810854 -7.175097 6
-44.195683 -10.535135 -7.1233153 6
-44.337776 -10.742744 -7.1931214 6
-44.367023 -10.17609 -7.1114044 6
-44.943333 -12.352006 -6.8131537 13
-45.102898 -12.741381 -6.9145827 13
-45.041328 -12.556114 -6.8694024 13
-34.157375 -45.469421 -6.4421415 33
-43.921543 -10.21592 -7.0021782 6
-44.047005 -10.19208 -7.0308714 6
-44.178513 -10.159879 -7.0599542 6
-44.227581 -9.916131 -7.0356069 6
-44.755951 -12.051696 -6.7211761 12
-44.824654 -12.193478 -6.7600856 12
-44.808132 -11.993431 -6.7234287 12
-45.098431 -11.20175 -6.6657276 12
-45.25449 -11.087595 -6.6851544 12
-53.474056 -22.484205 -4.0242319 19
-53.720726 -22.502968 -4.0458908 19
-58.606403 -28.022049 -2.6708744 33
-32.525211 -49.21965 -6.1402483 17
-32.766907 -49.483982 -6.1596537 18
-39.408772 -16.084171 -7.2684817 11
-39.997299 -15.416175 -7.2000685 11
-40.127773 -15.315251 -7.1991091 11
-40.265289 -15.22233 -7.2020688 11
-40.373268 -15.153739 -7.2058191 12
-40.500023 -15.111097 -7.2201519 6
-39.832375 -52.476437 -4.4451256 29
-40.551884 -17.587643 -7.0877771 12
-40.234131 -52.133072 -4.3428917 29
-44.064659 -21.695866 -5.9709053 11
-44.716663 -11.851988 -6.6796598 12
-44.725739 -11.710833 -6.6589847 12
-44.756611 -11.29821 -6.6011152 11
-44.815945 -11.613079 -6.6640325 12
-44.829544 -11.483573 -6.6467834 12
-44.87923 -11.220054 -6.617537 11.5
-44.919926 -20.927849 -5.8983178 11
-45.014416 -20.874264 -5.8976488 11
-48.813808 -15.162875 -5.4328151 10
-48.961231 -14.792849 -5.4066362 10
-53.413292 -21.843699 -3.9392991 19
-53.619999 -21.85157 -3.9568973 19
-53.705345 -21.60821 -3.9341865 19
-53.754066 -21.782663 -3.9593358 19
-53.771332 -21.511211 -3.9279106 19
-53.742847 -21.333944 -3.9043317 19
-54.071133 -21.410391 -3.9407563 19
-32.050484 -48.668854 -6.0962687 17
0 0 0 1 0 0 0 1 0 0 0 1 0 0 0 0 0 201 1 0 0
